<svg width="22" height="15" viewBox="0 0 22 15" fill="none" xmlns="http://www.w3.org/2000/svg">
<path d="M21.4 3.2C21.32 3.1 21.2 3.04 21.08 3.04H4.54L4.1 0.799996C4.06 0.619996 3.9 0.479996 3.7 0.479996H0.9C0.68 0.479996 0.5 0.659996 0.5 0.879996C0.5 1.1 0.68 1.28 0.9 1.28H3.36L5.48 12.22C5.52 12.32 6.26 14.42 8.12 14.42H18.32C18.54 14.42 18.72 14.24 18.72 14.02C18.72 13.8 18.54 13.62 18.32 13.62H8.12C7.38 13.62 6.88 13.08 6.58 12.62L19.4 10.82C19.56 10.8 19.7 10.68 19.74 10.52L21.46 3.54C21.5 3.42 21.48 3.3 21.4 3.2ZM19.04 10.08L6.24 11.88L4.7 3.86H20.58L19.04 10.08Z" fill="#010202"/>
</svg>
